<svg width="312" height="523" viewBox="0 0 312 523" fill="none" xmlns="http://www.w3.org/2000/svg">
<path d="M267.761 243.586C267.658 243.709 267.542 243.922 267.6 244.212C268.542 249.072 269.846 253.938 271.478 258.668C278.113 277.906 289.813 294.297 306.263 307.385C324.178 321.641 342.867 328.016 350.075 330.094C354.251 331.295 357.174 335.173 357.174 339.51V377.327C357.174 380.218 355.909 382.948 353.702 384.82C351.921 386.33 349.675 387.143 347.378 387.143C346.842 387.143 346.313 387.104 345.777 387.014C298.596 379.224 257.029 352.385 231.744 313.374C226.278 304.933 221.606 295.962 217.85 286.702C212.3 273.033 208.731 258.662 207.24 243.999C207.202 243.599 206.872 243.296 206.472 243.296H135.226C129.818 243.296 125.416 238.901 125.416 233.487V207.305C125.416 201.897 129.818 197.496 135.226 197.496H208.537C208.912 197.496 209.228 197.231 209.292 196.876C209.596 195.244 209.918 193.592 210.267 191.965C211.229 187.461 215.262 184.189 219.863 184.189H259.681C262.727 184.189 265.541 185.564 267.413 187.964C269.284 190.365 269.936 193.437 269.194 196.386L269.162 196.515C269.084 196.831 269.194 197.057 269.304 197.199C269.458 197.393 269.658 197.496 269.91 197.496H347.365C352.773 197.496 357.174 201.897 357.174 207.305V233.487C357.174 238.901 352.773 243.296 347.365 243.296H268.368C268.058 243.296 267.871 243.451 267.761 243.586Z" fill="#5800FF" fill-opacity="0.03"/>
<path d="M261.5 523C226.209 523 191.959 516.082 159.702 502.439C128.56 489.267 100.597 470.415 76.5902 446.408C52.5834 422.402 33.7324 394.439 20.5604 363.297C6.91763 331.041 0 296.793 0 261.503C0 226.213 6.91795 191.964 20.5613 159.708C33.7336 128.565 52.5849 100.602 76.5917 76.5944C100.599 52.5869 128.562 33.7349 159.704 20.5621C191.961 6.9182 226.21 0 261.5 0C282.034 0 302.306 2.36479 322.048 7.04903C336.613 10.5049 344.032 26.1213 339.079 40.2475C334.126 54.3737 318.671 61.6192 304.016 58.5661C290.113 55.6695 275.892 54.2088 261.5 54.2088C147.199 54.2088 54.2093 147.2 54.2093 261.503C54.2093 375.805 147.2 468.791 261.5 468.791C375.801 468.791 468.791 375.802 468.791 261.503C468.791 247.047 467.316 232.761 464.392 218.792C461.325 204.14 468.558 188.68 482.681 183.717C496.804 178.753 512.426 186.159 515.895 200.721C520.616 220.542 523 240.892 523 261.503C523 296.793 516.083 331.041 502.44 363.297C489.268 394.439 470.417 422.402 446.41 446.408C422.404 470.415 394.44 489.267 363.297 502.439C331.041 516.082 296.791 523 261.5 523Z" fill="#5800FF" fill-opacity="0.03"/>
<path d="M365.783 98.3599C367.604 100.181 369.425 100.755 373.02 100.755L412.431 100.963C412.795 100.963 413.106 100.963 413.264 101.17C413.419 101.326 413.471 101.639 413.471 101.952L413.626 141.416C413.679 145.008 414.252 146.829 416.074 148.651C418.522 151.15 421.958 150.735 424.508 148.236C425.863 146.881 426.956 144.644 427.945 142.56L467.774 56.6591C469.855 52.2875 469.595 49.0578 467.463 46.9231C465.377 44.8417 462.149 44.5818 457.778 46.6631L371.873 86.4916C369.79 87.4801 367.553 88.5729 366.198 89.928C363.699 92.478 363.283 95.861 365.783 98.3599Z" fill="#5800FF" fill-opacity="0.03"/>
</svg>
