<svg width="192" height="192" viewBox="0 0 192 192" fill="none" xmlns="http://www.w3.org/2000/svg">
<path d="M98.2985 89.4237C98.2606 89.4687 98.218 89.5469 98.2393 89.6535C98.5852 91.4374 99.0638 93.2238 99.6632 94.9603C102.099 102.023 106.394 108.04 112.433 112.845C119.01 118.078 125.871 120.419 128.517 121.182C130.05 121.623 131.123 123.046 131.123 124.638V138.522C131.123 139.583 130.659 140.585 129.849 141.272C129.195 141.827 128.37 142.125 127.527 142.125C127.33 142.125 127.136 142.111 126.939 142.078C109.618 139.218 94.3586 129.365 85.0763 115.043C83.0696 111.945 81.3543 108.652 79.9755 105.252C77.938 100.234 76.6278 94.958 76.0806 89.5753C76.0664 89.4284 75.9455 89.3171 75.7986 89.3171H49.6431C47.6578 89.3171 46.042 87.7037 46.042 85.716V76.1044C46.042 74.1191 47.6578 72.5033 49.6431 72.5033H76.5568C76.6942 72.5033 76.8103 72.4062 76.834 72.2759C76.9453 71.6765 77.0638 71.07 77.1917 70.473C77.5447 68.8193 79.0254 67.6182 80.7146 67.6182H95.3324C96.4506 67.6182 97.4836 68.1228 98.1706 69.0041C98.8577 69.8854 99.097 71.0131 98.8245 72.0958L98.8127 72.1432C98.7842 72.2593 98.8245 72.3422 98.8648 72.3943C98.9216 72.4654 98.9951 72.5033 99.0875 72.5033H127.522C129.507 72.5033 131.123 74.1191 131.123 76.1044V85.716C131.123 87.7037 129.507 89.3171 127.522 89.3171H98.5212C98.4075 89.3171 98.3388 89.3739 98.2985 89.4237Z" fill="#5800FF"/>
<path d="M96 192C83.0441 192 70.4707 189.46 58.6288 184.452C47.196 179.616 36.9304 172.695 28.1172 163.882C19.304 155.069 12.3836 144.804 7.548 133.371C2.53955 121.529 0 108.956 0 96.0011C0 83.0457 2.53967 70.4726 7.54833 58.6309C12.384 47.198 19.3046 36.9322 28.1178 28.1188C36.9311 19.3053 47.1967 12.3845 58.6295 7.54861C70.4713 2.53976 83.0446 0 96 0C103.538 0 110.98 0.868143 118.228 2.58779C123.575 3.85648 126.298 9.58948 124.48 14.7754C122.662 19.9613 116.988 22.6212 111.608 21.5003C106.504 20.437 101.284 19.9007 96 19.9007C54.0388 19.9007 19.9009 54.0392 19.9009 96.0011C19.9009 137.963 54.0388 172.099 96 172.099C137.961 172.099 172.099 137.962 172.099 96.0011C172.099 90.6942 171.558 85.4496 170.484 80.3214C169.358 74.9426 172.014 69.267 177.198 67.4448C182.383 65.6226 188.118 68.3415 189.392 73.6874C191.125 80.9637 192 88.4347 192 96.0011C192 108.956 189.461 121.529 184.452 133.371C179.617 144.804 172.696 155.069 163.883 163.882C155.07 172.695 144.804 179.616 133.371 184.452C121.529 189.46 108.956 192 96 192Z" fill="#5800FF"/>
<path d="M134.283 36.1092C134.952 36.7779 135.621 36.9883 136.94 36.9883L151.409 37.0649C151.542 37.0649 151.657 37.0649 151.714 37.1408C151.772 37.1979 151.79 37.3129 151.79 37.4279L151.847 51.9156C151.867 53.2343 152.077 53.903 152.746 54.5717C153.645 55.4891 154.906 55.3366 155.842 54.4192C156.34 53.9217 156.741 53.1006 157.104 52.3357L171.726 20.8003C172.49 19.1954 172.394 18.0097 171.612 17.2261C170.846 16.462 169.661 16.3665 168.056 17.1306L136.519 31.7522C135.755 32.1151 134.933 32.5163 134.436 33.0137C133.518 33.9499 133.366 35.1918 134.283 36.1092Z" fill="#5800FF"/>
</svg>
