<svg width="172" height="172" viewBox="0 0 172 172" fill="none" xmlns="http://www.w3.org/2000/svg">
<g filter="url(#filter0_d_7407_12751)">
<path d="M86 20C49.7 20 20 49.7 20 86C20 122.3 49.7 152 86 152C122.3 152 152 122.3 152 86C152 49.7 122.3 20 86 20ZM86 34.6667C97.3667 34.6667 108 38.7 116.8 44.9333L44.9333 116.8C38.7 108 34.6667 97.3667 34.6667 86C34.6667 57.7667 57.7667 34.6667 86 34.6667ZM86 137.333C74.6333 137.333 64 133.3 55.2 127.067L127.067 55.2C133.3 64 137.333 74.6333 137.333 86C137.333 114.233 114.233 137.333 86 137.333Z" fill="#D50000"/>
</g>
<defs>
<filter id="filter0_d_7407_12751" x="0" y="0" width="172" height="172" filterUnits="userSpaceOnUse" color-interpolation-filters="sRGB">
<feFlood flood-opacity="0" result="BackgroundImageFix"/>
<feColorMatrix in="SourceAlpha" type="matrix" values="0 0 0 0 0 0 0 0 0 0 0 0 0 0 0 0 0 0 127 0" result="hardAlpha"/>
<feOffset/>
<feGaussianBlur stdDeviation="10"/>
<feComposite in2="hardAlpha" operator="out"/>
<feColorMatrix type="matrix" values="0 0 0 0 1 0 0 0 0 0 0 0 0 0 0 0 0 0 0.4 0"/>
<feBlend mode="normal" in2="BackgroundImageFix" result="effect1_dropShadow_7407_12751"/>
<feBlend mode="normal" in="SourceGraphic" in2="effect1_dropShadow_7407_12751" result="shape"/>
</filter>
</defs>
</svg>
