<svg width="20" height="20" viewBox="0 0 20 20" fill="none" xmlns="http://www.w3.org/2000/svg">
<path d="M1.66669 5.00004C1.66669 4.55801 1.84228 4.13409 2.15484 3.82153C2.4674 3.50897 2.89133 3.33337 3.33335 3.33337H16.6667C17.1087 3.33337 17.5326 3.50897 17.8452 3.82153C18.1578 4.13409 18.3334 4.55801 18.3334 5.00004V15C18.3334 15.4421 18.1578 15.866 17.8452 16.1786C17.5326 16.4911 17.1087 16.6667 16.6667 16.6667H3.33335C2.89133 16.6667 2.4674 16.4911 2.15484 16.1786C1.84228 15.866 1.66669 15.4421 1.66669 15V5.00004ZM4.59919 5.00004L10 9.72587L15.4009 5.00004H4.59919ZM16.6667 6.10754L10.5492 11.4609C10.3972 11.594 10.2021 11.6674 10 11.6674C9.79798 11.6674 9.60282 11.594 9.45085 11.4609L3.33335 6.10754V15H16.6667V6.10754Z" fill="#5800FF"/>
</svg>
