<svg width="18" height="15" viewBox="0 0 18 15" fill="none" xmlns="http://www.w3.org/2000/svg">
<path fill-rule="evenodd" clip-rule="evenodd" d="M4.5 1.85005C4.5 1.37266 4.68964 0.914822 5.02721 0.577257C5.36477 0.239691 5.82261 0.0500488 6.3 0.0500488H16.2C16.6774 0.0500488 17.1352 0.239691 17.4728 0.577257C17.8104 0.914822 18 1.37266 18 1.85005V8.15005C18 8.62744 17.8104 9.08527 17.4728 9.42284C17.1352 9.76041 16.6774 9.95005 16.2 9.95005H14.4V6.35005C14.4 5.63396 14.1155 4.94721 13.6092 4.44086C13.1028 3.93451 12.4161 3.65005 11.7 3.65005H4.5V1.85005Z" fill="#626262"/>
<path fill-rule="evenodd" clip-rule="evenodd" d="M0 6.35029C0 5.8729 0.189642 5.41507 0.527208 5.0775C0.864773 4.73994 1.32261 4.55029 1.8 4.55029H11.7C12.1774 4.55029 12.6352 4.73994 12.9728 5.0775C13.3104 5.41507 13.5 5.8729 13.5 6.35029V12.6503C13.5 13.1277 13.3104 13.5855 12.9728 13.9231C12.6352 14.2606 12.1774 14.4503 11.7 14.4503H1.8C1.32261 14.4503 0.864773 14.2606 0.527208 13.9231C0.189642 13.5855 0 13.1277 0 12.6503V6.35029ZM6.75 7.25029C6.15326 7.25029 5.58097 7.48735 5.15901 7.9093C4.73705 8.33126 4.5 8.90356 4.5 9.50029C4.5 10.097 4.73705 10.6693 5.15901 11.0913C5.58097 11.5132 6.15326 11.7503 6.75 11.7503C7.34674 11.7503 7.91903 11.5132 8.34099 11.0913C8.76295 10.6693 9 10.097 9 9.50029C9 8.90356 8.76295 8.33126 8.34099 7.9093C7.91903 7.48735 7.34674 7.25029 6.75 7.25029Z" fill="#8B4EFF"/>
<path d="M7.65001 9.5001C7.65001 9.73879 7.55518 9.96771 7.3864 10.1365C7.21762 10.3053 6.9887 10.4001 6.75001 10.4001C6.51131 10.4001 6.28239 10.3053 6.11361 10.1365C5.94483 9.96771 5.85001 9.73879 5.85001 9.5001C5.85001 9.2614 5.94483 9.03248 6.11361 8.8637C6.28239 8.69492 6.51131 8.6001 6.75001 8.6001C6.9887 8.6001 7.21762 8.69492 7.3864 8.8637C7.55518 9.03248 7.65001 9.2614 7.65001 9.5001Z" fill="#626262"/>
</svg>
