<svg width="22" height="23" viewBox="0 0 22 23" fill="none" xmlns="http://www.w3.org/2000/svg">
<path d="M5.08511 11.1542C4.66427 11.2193 4.45385 11.2519 4.32019 11.3612C4.20296 11.457 4.12392 11.5917 4.09738 11.7408C4.0671 11.9107 4.14124 12.1104 4.2895 12.5096L7.59179 21.4011C7.85647 22.1137 7.98881 22.4701 8.19202 22.584C8.36837 22.6828 8.58129 22.6916 8.76519 22.6077C8.9771 22.5109 9.13838 22.1667 9.46095 21.4783L12.8689 14.2054C12.9286 14.0779 12.9585 14.0142 13.0001 13.9598C13.037 13.9116 13.0807 13.8689 13.1298 13.8331C13.1851 13.7927 13.2495 13.7643 13.3783 13.7076L20.7281 10.4688C21.4238 10.1622 21.7716 10.009 21.8733 9.79934C21.9614 9.61743 21.9576 9.40437 21.8628 9.22578C21.7537 9.01999 21.4005 8.87944 20.6941 8.59835L11.8814 5.0913C11.4857 4.93384 11.2879 4.85511 11.1172 4.88144C10.9676 4.90453 10.8311 4.98044 10.7326 5.09541C10.6202 5.22651 10.5828 5.43612 10.5079 5.85534L9.84816 9.55003C9.75293 10.0833 9.3294 10.4971 8.79407 10.58L5.08511 11.1542Z" fill="#5800FF"/>
<path d="M2.93385 8.85941C2.94653 8.89356 2.98147 8.91407 3.01747 8.9085L6.79538 8.32367C7.05297 8.28379 7.18177 8.26386 7.28499 8.20397C7.37614 8.15108 7.45267 8.0763 7.50765 7.9864C7.56991 7.88459 7.59282 7.75629 7.63865 7.49969L8.3107 3.73631C8.3171 3.70046 8.2974 3.66505 8.26356 3.65158L1.86016 1.10334C1.18865 0.836107 0.852888 0.702492 0.635615 0.772763C0.446888 0.833802 0.297613 0.979663 0.232225 1.16693C0.156948 1.38252 0.282762 1.72128 0.534389 2.39879L2.93385 8.85941Z" fill="#5800FF"/>
</svg>
