<svg width="74" height="67" viewBox="0 0 74 67" fill="none" xmlns="http://www.w3.org/2000/svg">
<path fill-rule="evenodd" clip-rule="evenodd" d="M14.4048 7.05263C12.5609 7.05263 10.7925 7.79567 9.48869 9.1183C8.18486 10.4409 7.45238 12.2348 7.45238 14.1053V17.6316H63.0714V14.1053C63.0714 12.2348 62.3389 10.4409 61.0351 9.1183C59.7313 7.79567 57.9629 7.05263 56.119 7.05263H14.4048ZM70.0238 14.1053C70.0238 10.3643 68.5589 6.77659 65.9512 4.13134C63.3435 1.48609 59.8068 0 56.119 0H14.4048C10.717 0 7.18026 1.48609 4.57261 4.13134C1.96496 6.77659 0.5 10.3643 0.5 14.1053V42.3158C0.5 46.0567 1.96496 49.6445 4.57261 52.2897C7.18026 54.935 10.717 56.4211 14.4048 56.4211H35.2619C37.1818 56.4211 38.7381 54.8423 38.7381 52.8947C38.7381 50.9472 37.1818 49.3684 35.2619 49.3684H14.4048C12.5609 49.3684 10.7925 48.6254 9.48869 47.3028C8.18486 45.9801 7.45238 44.1863 7.45238 42.3158V24.6842H63.0714V29.9737C63.0714 31.9212 64.6278 33.5 66.5476 33.5C68.4675 33.5 70.0238 31.9212 70.0238 29.9737V14.1053ZM14.4221 38.7895C14.4221 36.8419 15.9785 35.2632 17.8983 35.2632H17.9157C19.8356 35.2632 21.3919 36.8419 21.3919 38.7895C21.3919 40.737 19.8356 42.3158 17.9157 42.3158H17.8983C15.9785 42.3158 14.4221 40.737 14.4221 38.7895ZM28.3095 38.7895C28.3095 36.8419 29.8659 35.2632 31.7857 35.2632H38.7381C40.6579 35.2632 42.2143 36.8419 42.2143 38.7895C42.2143 40.737 40.6579 42.3158 38.7381 42.3158H31.7857C29.8659 42.3158 28.3095 40.737 28.3095 38.7895Z" fill="#5800FF" fill-opacity="0.7"/>
<path d="M57.1372 39.8224C58.4947 38.4453 60.6957 38.4453 62.0533 39.8224L72.4818 50.4013C73.8394 51.7784 73.8394 54.0112 72.4818 55.3883L62.0533 65.9672C60.6957 67.3444 58.4947 67.3444 57.1372 65.9672C55.7797 64.5901 55.7797 62.3574 57.1372 60.9803L61.6315 56.4211H49.1667C47.2468 56.4211 45.6905 54.8423 45.6905 52.8948C45.6905 50.9473 47.2468 49.3685 49.1667 49.3685H61.6315L57.1372 44.8093C55.7797 43.4322 55.7797 41.1995 57.1372 39.8224Z" fill="#5800FF"/>
</svg>
