<svg width="15" height="16" viewBox="0 0 15 16" fill="none" xmlns="http://www.w3.org/2000/svg">
<path fill-rule="evenodd" clip-rule="evenodd" d="M4.5565 1.72579C4.44135 1.62034 4.29412 1.56308 4.14224 1.56467C4.13983 1.56469 4.13742 1.56471 4.13501 1.56471H2.09446C2.00768 1.56484 1.92186 1.58419 1.84247 1.62152C1.76299 1.65891 1.69169 1.7135 1.63311 1.78183C1.57452 1.85016 1.52995 1.93073 1.50221 2.01841C1.47498 2.10449 1.46457 2.19556 1.4716 2.28604C1.68378 4.40027 2.35994 6.43179 3.44551 8.21652C3.44666 8.21841 3.44781 8.22031 3.44894 8.22221C4.4356 9.87547 5.75203 11.2772 7.30474 12.3277C7.30584 12.3285 7.30694 12.3292 7.30803 12.3299C7.30882 12.3305 7.3096 12.331 7.31038 12.3316C8.97867 13.4832 10.877 14.2029 12.8534 14.4332C12.9384 14.4405 13.0239 14.4293 13.1047 14.4002C13.1873 14.3705 13.2631 14.3227 13.3274 14.26C13.3916 14.1973 13.4428 14.1209 13.4777 14.0359C13.5126 13.9509 13.5305 13.859 13.5301 13.7662L13.5301 13.7631V11.59C13.5301 11.5835 13.5302 11.577 13.5303 11.5706C13.5341 11.4071 13.4814 11.2479 13.3822 11.1232C13.2835 10.9992 13.1457 10.9179 12.9948 10.8946C12.2879 10.7952 11.5939 10.611 10.9259 10.3453L10.9245 10.3447C10.8125 10.2999 10.6908 10.2902 10.5737 10.3168C10.4572 10.3432 10.3503 10.4045 10.2654 10.4935C10.265 10.4939 10.2646 10.4943 10.2642 10.4947L9.40312 11.4115C9.16924 11.6606 8.80793 11.7125 8.52041 11.5384C6.70225 10.4376 5.19685 8.83473 4.16301 6.89883C3.99953 6.5927 4.0483 6.20798 4.28218 5.95896L5.14446 5.04083C5.22796 4.95044 5.28552 4.83655 5.31036 4.71253C5.33532 4.58792 5.3262 4.45831 5.2841 4.33904L5.28357 4.33754C5.03407 3.62639 4.86102 2.88744 4.76773 2.13483C4.74594 1.97586 4.67095 1.83058 4.5565 1.72579ZM4.13178 7.02968e-05C4.63881 -0.00421345 5.13015 0.187415 5.51466 0.539502C5.90017 0.892515 6.15198 1.38274 6.22314 1.91881C6.22347 1.9213 6.22379 1.92379 6.2241 1.92628C6.30273 2.56289 6.44895 3.18795 6.65994 3.78946C6.80061 4.18847 6.831 4.62204 6.74751 5.03888C6.66395 5.45605 6.46983 5.83897 6.18815 6.14227C6.18718 6.14331 6.18622 6.14434 6.18525 6.14537L5.72837 6.63185C6.51347 7.93089 7.55112 9.03574 8.77116 9.87169L9.22909 9.38411C9.22971 9.38345 9.23033 9.38279 9.23096 9.38213C9.51581 9.08221 9.87544 8.87552 10.2672 8.78654C10.6587 8.69765 11.0659 8.73001 11.4407 8.87979C12.0056 9.10444 12.5926 9.26012 13.1905 9.34386C13.1928 9.34418 13.1951 9.34451 13.1973 9.34485C13.7063 9.42129 14.1711 9.69424 14.5033 10.1118C14.8334 10.5266 15.0098 11.0553 14.9996 11.5986V13.7613C15.0006 14.0715 14.9408 14.3785 14.8241 14.6627C14.7072 14.9474 14.5358 15.2029 14.3208 15.413C14.1058 15.623 13.8519 15.7829 13.5755 15.8824C13.2991 15.9819 13.0062 16.0189 12.7156 15.9909C12.7112 15.9905 12.7067 15.99 12.7023 15.9895C10.4958 15.734 8.37635 14.9314 6.51376 13.6463C4.78111 12.4734 3.31195 10.9091 2.21039 9.06421C0.999187 7.07196 0.245279 4.80418 0.00963947 2.44422C0.00923047 2.44012 0.00885188 2.43602 0.00850371 2.43192C-0.0176773 2.12344 0.0167542 1.81253 0.109605 1.519C0.202456 1.22546 0.351693 0.95573 0.547813 0.726972C0.743934 0.498213 0.982641 0.315441 1.24874 0.190292C1.51483 0.0651444 1.80249 0.000362317 2.09339 7.06283e-05L4.13178 7.02968e-05Z" fill="#5800FF"/>
</svg>
