<svg width="19" height="15" viewBox="0 0 19 15" fill="none" xmlns="http://www.w3.org/2000/svg">
<path d="M14.3158 0C14.7904 0 15.2455 0.197544 15.5811 0.549175C15.9167 0.900805 16.1053 1.37772 16.1053 1.875V2.8125H10.7368C9.55035 2.8125 8.41245 3.30636 7.57347 4.18544C6.73449 5.06451 6.26316 6.2568 6.26316 7.5C6.26316 8.7432 6.73449 9.93549 7.57347 10.8146C8.41245 11.6936 9.55035 12.1875 10.7368 12.1875H16.1053V13.125C16.1053 13.6223 15.9167 14.0992 15.5811 14.4508C15.2455 14.8025 14.7904 15 14.3158 15H1.78947C1.31488 15 0.859716 14.8025 0.524125 14.4508C0.188533 14.0992 0 13.6223 0 13.125V1.875C0 1.37772 0.188533 0.900805 0.524125 0.549175C0.859716 0.197544 1.31488 0 1.78947 0H14.3158Z" fill="#8B4EFF"/>
<path d="M18.3556 4.68342C17.9431 4.24583 17.3835 4 16.8 4H11.3C10.4248 4 9.58542 4.36875 8.96655 5.02513C8.34768 5.6815 8 6.57174 8 7.5C8 8.42826 8.34768 9.3185 8.96655 9.97487C9.58542 10.6313 10.4248 11 11.3 11H16.8C17.3835 11 17.9431 10.7542 18.3556 10.3166C18.7682 9.879 19 9.28551 19 8.66667V6.33333C19 5.71449 18.7682 5.121 18.3556 4.68342Z" fill="#626262"/>
<circle cx="11.5" cy="7.5" r="1.5" fill="#FBFBFB"/>
</svg>
